<?xml version="1.0" standalone="no"?>
<!DOCTYPE svg PUBLIC "-//W3C//DTD SVG 20010904//EN"
 "http://www.w3.org/TR/2001/REC-SVG-20010904/DTD/svg10.dtd">
<svg version="1.0" xmlns="http://www.w3.org/2000/svg"
 width="512.000000pt" height="512.000000pt" viewBox="0 0 512.000000 512.000000"
 preserveAspectRatio="xMidYMid meet">
<metadata>
Created by potrace 1.14, written by Peter Selinger 2001-2017
</metadata>
<g transform="translate(0.000000,512.000000) scale(0.100000,-0.100000)"
fill="#000000" stroke="none">
<path d="M881 5100 c-29 -10 -60 -25 -70 -32 -46 -35 -108 -111 -125 -155 -17
-45 -24 -51 -70 -67 -67 -24 -154 -113 -179 -182 -22 -62 -28 -121 -19 -176 7
-39 5 -47 -25 -86 -40 -52 -65 -135 -62 -200 2 -49 36 -155 50 -160 5 -2 9 -8
9 -14 0 -5 7 -16 15 -25 9 -9 13 -23 10 -34 -10 -32 22 -122 59 -166 50 -57
112 -84 202 -86 l73 -2 12 -50 c11 -48 54 -148 81 -190 28 -42 106 -119 166
-163 34 -25 62 -53 63 -61 0 -9 1 -38 2 -64 2 -27 0 -53 -4 -59 -5 -8 -69 -25
-169 -44 -191 -37 -303 -88 -398 -183 -77 -77 -125 -160 -151 -263 -26 -100
-29 -423 -6 -513 19 -70 64 -144 120 -198 43 -41 150 -97 184 -97 14 0 26 -10
33 -27 7 -16 20 -39 30 -52 17 -23 17 -24 -24 -70 -39 -44 -98 -152 -98 -178
0 -16 17 -15 -317 -15 l-273 -1 0 -579 0 -578 25 0 c36 0 73 -21 178 -101 114
-87 282 -170 402 -200 114 -28 313 -34 433 -13 89 16 197 51 276 91 55 28 198
124 236 158 64 58 157 81 225 55 14 -5 67 -40 118 -78 158 -117 251 -166 380
-202 101 -29 155 -35 292 -35 145 1 211 10 319 46 97 33 194 84 291 155 170
124 161 119 239 119 70 0 73 -1 140 -50 146 -107 194 -138 281 -180 50 -23
101 -46 115 -49 162 -38 202 -43 335 -41 157 2 266 24 390 78 71 31 216 123
291 183 44 37 102 64 134 64 20 0 20 2 18 537 l-3 538 -37 -1 c-21 0 -38 4
-39 10 -1 6 -2 25 -3 41 l-1 30 -522 1 c-288 0 -525 3 -529 7 -3 3 4 16 16 29
47 49 98 151 116 230 13 59 13 175 -1 235 -31 133 -66 188 -215 339 -61 62
-110 115 -110 119 0 7 85 114 127 160 10 11 42 50 72 88 30 37 58 67 63 67 5
0 46 -38 93 -85 46 -47 87 -85 91 -85 4 0 31 25 62 56 l55 56 -154 154 c-84
85 -156 154 -159 153 -3 0 -34 -37 -70 -81 -36 -44 -70 -86 -75 -92 -6 -6 -33
-38 -60 -71 -27 -33 -77 -92 -111 -131 l-61 -72 -53 54 c-29 30 -56 54 -59 54
-4 0 -27 -20 -51 -45 -24 -25 -47 -45 -51 -45 -13 0 -132 192 -123 198 6 4 81
54 167 112 96 64 152 107 144 111 -23 13 -740 250 -743 246 -3 -2 -3 -173 -2
-380 l3 -376 115 77 c64 42 128 85 142 94 l27 18 75 -112 75 -112 -132 -135
c-174 -179 -217 -263 -222 -436 -3 -125 39 -255 114 -349 17 -21 31 -42 31
-45 0 -3 -239 -6 -531 -5 l-531 1 -19 53 c-21 59 -55 112 -98 154 l-28 27 31
54 c20 34 38 54 50 55 34 0 141 59 187 102 25 24 58 65 73 91 50 85 57 125 56
342 0 110 -2 213 -5 229 -22 113 -91 241 -174 319 -98 93 -183 126 -483 192
l-78 17 0 72 0 71 53 37 c140 101 214 203 256 353 l16 60 60 1 c85 2 135 18
183 60 52 44 81 99 89 167 3 29 13 63 23 77 40 60 54 106 57 183 1 66 -2 88
-23 135 -14 32 -36 68 -49 82 -17 18 -21 30 -15 41 5 9 8 50 6 91 -2 58 -9 89
-30 132 -33 68 -111 140 -177 163 -42 15 -50 22 -55 49 -7 37 -65 116 -116
157 -79 64 -236 85 -317 43 -32 -17 -36 -17 -89 -1 -83 27 -147 28 -223 4 -63
-20 -68 -20 -105 -4 -62 26 -169 29 -233 5z"/>
<path d="M4810 5110 c-61 -17 -109 -59 -396 -345 l-304 -304 -728 -3 c-723 -3
-727 -3 -767 -25 -116 -62 -168 -203 -116 -316 21 -48 68 -107 85 -107 6 0 22
-9 35 -19 l24 -18 0 -252 0 -251 248 0 248 0 0 188 c0 103 0 214 0 247 l1 60
567 0 c313 -1 573 -4 578 -7 6 -4 10 -97 10 -247 l-1 -241 248 0 248 0 0 253
0 253 39 22 c145 82 167 284 42 394 -21 18 -46 38 -56 43 -15 9 0 28 122 151
76 77 147 156 156 176 76 160 -28 341 -203 352 -30 2 -66 0 -80 -4z"/>
</g>
</svg>
